<svg xmlns="http://www.w3.org/2000/svg" viewBox="0 0 48 207.7" fill="#ffffff"><path d="M0.5 162.4 L0.0 162.1 L2.6 159.7 L4.3 160.1 L3.0 159.7 L6.0 158.3 L5.3 157.6 L4.4 158.1 L3.1 157.4 L5.3 157.0 L6.8 158.3 L6.8 157.0 L8.6 157.0 L7.9 157.5 L9.1 157.9 L7.8 158.2 L8.2 158.4 L9.1 158.0 L9.2 158.9 L6.6 159.1 L10.1 160.0 L9.2 159.3 L9.9 158.8 L10.6 159.3 L10.2 161.3 L12.8 158.3 L10.9 159.9 L11.7 157.1 L13.9 156.2 L11.5 156.8 L12.0 155.0 L13.5 154.2 L11.9 153.6 L15.2 151.3 L13.5 152.2 L12.5 151.6 L13.6 151.5 L12.2 150.6 L14.0 150.1 L13.3 149.4 L16.4 149.9 L14.9 150.3 L15.6 151.0 L17.2 149.9 L17.1 148.8 L16.5 149.8 L13.1 147.9 L14.8 145.7 L16.1 146.0 L14.4 145.5 L15.4 144.8 L14.2 143.8 L15.5 141.6 L16.2 141.9 L15.7 138.7 L17.5 138.9 L15.6 137.5 L17.0 136.9 L17.8 138.6 L18.2 136.8 L17.8 135.8 L15.3 135.4 L18.4 133.9 L18.7 132.5 L17.8 134.1 L15.0 133.0 L13.8 134.8 L12.0 134.8 L10.6 134.4 L12.7 133.2 L10.3 133.5 L9.5 130.9 L10.8 124.8 L13.8 124.3 L13.4 123.5 L12.5 124.1 L13.7 120.3 L12.0 117.3 L10.9 110.0 L11.4 109.0 L13.6 109.1 L13.8 107.2 L13.5 106.9 L14.0 106.0 L14.8 106.5 L16.8 100.2 L19.5 97.4 L20.2 92.2 L22.5 89.6 L21.7 86.5 L22.9 85.5 L23.5 82.6 L21.8 72.7 L22.1 70.8 L24.2 68.7 L22.9 63.3 L26.3 56.1 L25.9 53.6 L27.8 49.1 L27.2 46.2 L28.8 43.6 L28.1 39.1 L29.1 39.5 L28.1 39.1 L29.1 33.9 L27.8 33.4 L28.1 31.1 L29.3 30.8 L29.7 28.6 L29.9 28.5 L31.0 21.9 L29.2 4.7 L32.1 3.7 L32.4 0.8 L34.3 0.0 L35.3 2.6 L36.5 3.1 L37.1 8.0 L40.2 10.6 L38.5 12.4 L39.5 13.5 L38.2 14.3 L38.3 16.4 L40.0 17.4 L39.4 18.9 L41.4 21.1 L43.0 29.6 L46.9 29.5 L48.0 30.5 L46.2 36.2 L39.6 39.5 L40.5 42.2 L39.1 44.1 L40.3 48.1 L39.1 49.9 L40.8 52.9 L38.0 53.3 L36.2 57.7 L33.3 60.4 L32.5 64.5 L31.2 65.6 L32.3 70.4 L31.6 71.5 L30.5 71.3 L29.8 75.1 L28.4 75.9 L28.2 78.2 L30.1 80.2 L29.2 80.7 L31.4 85.4 L31.0 87.1 L32.6 87.9 L31.8 90.2 L32.4 92.7 L31.1 93.1 L29.2 98.0 L28.2 98.3 L29.6 101.6 L29.0 103.5 L25.6 105.2 L24.5 108.0 L25.2 108.8 L24.6 112.0 L26.7 117.0 L23.4 118.8 L23.2 122.5 L21.8 122.8 L22.4 124.4 L21.2 126.0 L22.1 126.8 L20.4 128.9 L21.7 136.5 L19.1 136.8 L20.2 138.6 L19.4 140.9 L21.7 142.5 L20.6 144.0 L22.5 145.0 L21.6 145.8 L21.3 149.3 L25.3 149.9 L24.2 151.5 L19.8 151.3 L22.6 152.4 L24.0 154.1 L21.5 155.6 L22.3 158.0 L20.7 158.8 L22.2 161.8 L20.5 162.6 L20.9 164.9 L17.3 167.7 L19.0 170.9 L17.0 171.9 L17.2 173.7 L13.4 175.6 L11.3 175.6 L13.6 184.7 L18.6 183.9 L18.0 186.4 L18.8 187.2 L17.8 189.0 L20.2 191.2 L31.3 191.3 L40.1 193.5 L35.6 192.4 L33.2 194.3 L27.2 195.3 L25.9 201.2 L24.4 201.8 L17.6 199.2 L20.9 198.1 L21.4 199.1 L21.7 198.1 L25.1 196.4 L22.6 194.5 L18.4 194.3 L17.8 195.1 L17.1 194.7 L18.0 194.2 L15.6 194.3 L14.7 195.5 L16.5 195.1 L14.5 196.1 L14.8 197.3 L12.6 197.3 L13.9 196.5 L11.5 195.9 L13.5 195.8 L12.6 194.5 L10.7 195.5 L12.1 194.1 L11.1 193.8 L11.6 192.5 L10.6 191.6 L12.7 192.6 L14.7 191.7 L13.9 192.2 L14.7 193.0 L16.0 191.1 L17.3 192.6 L14.7 194.1 L17.2 194.0 L16.5 193.6 L17.6 192.5 L16.6 191.0 L17.7 190.1 L17.2 189.9 L16.1 190.4 L13.1 189.0 L14.7 190.1 L13.5 190.7 L15.1 190.5 L13.4 191.9 L12.4 189.4 L13.0 192.2 L11.1 190.6 L12.5 191.6 L11.4 189.9 L12.1 189.6 L10.8 190.2 L9.6 189.3 L9.7 187.8 L11.4 189.2 L10.3 187.0 L10.9 186.6 L8.7 186.9 L8.9 185.5 L8.0 186.1 L7.8 185.4 L10.8 185.5 L9.8 184.9 L10.7 184.8 L10.3 184.0 L12.7 184.0 L10.6 183.3 L9.0 185.0 L7.5 182.8 L9.9 183.3 L8.3 182.7 L9.3 182.3 L7.8 182.7 L8.3 182.1 L7.5 181.6 L7.1 182.4 L5.2 181.4 L7.2 180.7 L9.4 181.8 L7.2 180.1 L9.9 180.5 L9.1 180.2 L10.1 179.3 L7.6 179.7 L9.0 178.7 L7.4 178.3 L9.4 177.8 L8.7 177.5 L9.0 176.2 L10.4 176.9 L9.1 176.0 L8.3 175.9 L8.2 177.7 L7.0 176.9 L7.3 173.1 L8.5 173.1 L7.1 172.4 L9.7 172.3 L10.0 171.3 L8.0 171.0 L9.6 170.9 L7.9 171.0 L7.0 169.3 L5.8 169.1 L7.5 169.2 L8.0 170.6 L8.8 170.2 L7.7 169.2 L8.7 169.0 L12.1 170.5 L12.9 170.1 L11.2 168.5 L12.5 168.9 L12.2 168.3 L10.9 167.8 L11.1 167.1 L9.8 168.2 L5.3 167.5 L6.3 166.5 L7.2 167.0 L6.1 167.4 L8.2 167.8 L7.7 167.2 L9.0 167.1 L7.8 167.0 L9.5 166.9 L6.5 166.0 L7.6 164.7 L9.1 164.8 L8.1 164.1 L9.2 163.3 L7.5 162.2 L5.3 162.6 L6.9 163.0 L3.8 162.2 L4.1 160.5 L0.5 162.4ZM22.0 205.5 L21.0 204.9 L23.7 204.5 L26.1 205.3 L27.0 204.2 L28.1 204.4 L27.1 205.8 L28.2 204.7 L30.7 205.5 L26.1 203.1 L30.6 204.8 L30.2 204.2 L31.3 203.9 L32.6 205.8 L32.2 204.0 L33.6 205.2 L34.3 204.3 L35.7 205.0 L34.0 206.2 L35.0 206.4 L37.0 205.1 L31.2 203.0 L30.4 201.7 L34.9 199.8 L34.8 198.9 L28.8 198.9 L29.0 196.9 L30.8 196.5 L28.9 195.7 L31.8 196.0 L34.6 193.9 L35.9 195.1 L38.1 194.3 L39.0 195.0 L39.0 207.4 L36.3 207.7 L32.9 206.3 L33.0 207.1 L31.7 207.1 L31.7 206.2 L31.4 207.2 L29.5 207.2 L30.2 206.3 L27.0 207.1 L28.9 206.0 L25.6 206.8 L26.3 205.9 L22.0 205.5Z"/></svg>